<?xml version="1.0" encoding="utf-8"?><svg xmlns="http://www.w3.org/2000/svg" xmlns:xlink="http://www.w3.org/1999/xlink" width="194" height="194" preserveAspectRatio="xMidYMid" viewBox="0 0 194 194" style="display:block;background-repeat-y:initial;background-repeat-x:initial;background-color:rgb(241, 242, 243);animation-play-state:paused" ><g transform="scale(0.76)" style="transform:matrix(0.76, 0, 0, 0.76, 0, 0);animation-play-state:paused" ><defs style="animation-play-state:paused" ><g id="trianglify-0.48344793769819483" style="animation-play-state:paused" ><path d="M -62.60443190250079 74.4032585030881  L -103.90326390381783 -12.980379267241778  L -118.65782303532278 91.14638620530536 Z" stroke-width="0" fill="rgb(85, 200, 157)" style="animation-play-state:paused" ></path>
<path d="M -103.90326390381783 -12.980379267241778  L -190.96727909145835 64.38613286953702  L -118.65782303532278 91.14638620530536 Z" stroke-width="0" fill="rgb(68, 175, 159)" style="animation-play-state:paused" ></path>
<path d="M -62.60443190250079 74.4032585030881  L -24.010687797058054 -15.712671380455033  L -103.90326390381783 -12.980379267241778 Z" stroke-width="0" fill="rgb(21, 33, 43)" style="animation-play-state:paused" ></path>
<path d="M -103.90326390381783 -12.980379267241778  L -222.03758126491667 1.1116253487289691  L -190.96727909145835 64.38613286953702 Z" stroke-width="0" fill="rgb(40, 77, 88)" style="animation-play-state:paused" ></path>
<path d="M -190.96727909145835 64.38613286953702  L -137.12458822204155 166.5233716829371  L -118.65782303532278 91.14638620530536 Z" stroke-width="0" fill="rgb(21, 33, 43)" style="animation-play-state:paused" ></path>
<path d="M -118.65782303532278 91.14638620530536  L -22.505629440380147 168.92971893456888  L -62.60443190250079 74.4032585030881 Z" stroke-width="0" fill="rgb(40, 77, 88)" style="animation-play-state:paused" ></path>
<path d="M -22.505629440380147 -87.07028106543112  L -137.12458822204155 -89.4766283170629  L -103.90326390381783 -12.980379267241778 Z" stroke-width="0" fill="rgb(85, 200, 157)" style="animation-play-state:paused" ></path>
<path d="M -103.90326390381783 -12.980379267241778  L -197.95036952981144 -82.31606252333901  L -222.03758126491667 1.1116253487289691 Z" stroke-width="0" fill="rgb(135, 243, 156)" style="animation-play-state:paused" ></path>
<path d="M 65.03272090854165 64.38613286953702  L 33.96241873508333 1.1116253487289691  L -62.60443190250079 74.4032585030881 Z" stroke-width="0" fill="rgb(40, 77, 88)" style="animation-play-state:paused" ></path>
<path d="M -62.60443190250079 74.4032585030881  L 33.96241873508333 1.1116253487289691  L -24.010687797058054 -15.712671380455033 Z" stroke-width="0" fill="rgb(85, 200, 157)" style="animation-play-state:paused" ></path>
<path d="M -24.010687797058054 -15.712671380455033  L -22.505629440380147 -87.07028106543112  L -103.90326390381783 -12.980379267241778 Z" stroke-width="0" fill="rgb(64, 136, 140)" style="animation-play-state:paused" ></path>
<path d="M 58.04963047018856 -82.31606252333901  L -22.505629440380147 -87.07028106543112  L -24.010687797058054 -15.712671380455033 Z" stroke-width="0" fill="rgb(135, 243, 156)" style="animation-play-state:paused" ></path>
<path d="M -137.12458822204155 166.5233716829371  L -22.505629440380147 168.92971893456888  L -118.65782303532278 91.14638620530536 Z" stroke-width="0" fill="rgb(68, 175, 159)" style="animation-play-state:paused" ></path>
<path d="M -137.12458822204155 -89.4766283170629  L -197.95036952981144 -82.31606252333901  L -103.90326390381783 -12.980379267241778 Z" stroke-width="0" fill="rgb(40, 77, 88)" style="animation-play-state:paused" ></path>
<path d="M -190.96727909145835 64.38613286953702  L -197.95036952981144 173.683937476661  L -137.12458822204155 166.5233716829371 Z" stroke-width="0" fill="rgb(64, 136, 140)" style="animation-play-state:paused" ></path>
<path d="M -137.12458822204155 166.5233716829371  L -103.90326390381783 243.01962073275823  L -22.505629440380147 168.92971893456888 Z" stroke-width="0" fill="rgb(85, 200, 157)" style="animation-play-state:paused" ></path>
<path d="M -278.5056294403802 168.92971893456888  L -197.95036952981144 173.683937476661  L -190.96727909145835 64.38613286953702 Z" stroke-width="0" fill="rgb(135, 243, 156)" style="animation-play-state:paused" ></path>
<path d="M -22.505629440380147 168.92971893456888  L 65.03272090854165 64.38613286953702  L -62.60443190250079 74.4032585030881 Z" stroke-width="0" fill="rgb(21, 33, 43)" style="animation-play-state:paused" ></path>
<path d="M -197.95036952981144 -82.31606252333901  L -280.01068779705804 -15.712671380455033  L -222.03758126491667 1.1116253487289691 Z" stroke-width="0" fill="rgb(85, 200, 157)" style="animation-play-state:paused" ></path>
<path d="M -222.03758126491667 1.1116253487289691  L -318.6044319025008 74.4032585030881  L -190.96727909145835 64.38613286953702 Z" stroke-width="0" fill="rgb(40, 77, 88)" style="animation-play-state:paused" ></path>
<path d="M 33.96241873508333 1.1116253487289691  L 58.04963047018856 -82.31606252333901  L -24.010687797058054 -15.712671380455033 Z" stroke-width="0" fill="rgb(85, 200, 157)" style="animation-play-state:paused" ></path>
<path d="M 118.87541177795846 -89.4766283170629  L 58.04963047018856 -82.31606252333901  L 152.09673609618216 -12.980379267241778 Z" stroke-width="0" fill="rgb(40, 77, 88)" style="animation-play-state:paused" ></path>
<path d="M -197.95036952981144 173.683937476661  L -103.90326390381783 243.01962073275823  L -137.12458822204155 166.5233716829371 Z" stroke-width="0" fill="rgb(40, 77, 88)" style="animation-play-state:paused" ></path>
<path d="M -62.60443190250079 -181.5967414969119  L -118.65782303532278 -164.85361379469464  L -22.505629440380147 -87.07028106543112 Z" stroke-width="0" fill="rgb(40, 77, 88)" style="animation-play-state:paused" ></path>
<path d="M -22.505629440380147 -87.07028106543112  L -118.65782303532278 -164.85361379469464  L -137.12458822204155 -89.4766283170629 Z" stroke-width="0" fill="rgb(68, 175, 159)" style="animation-play-state:paused" ></path>
<path d="M -137.12458822204155 -89.4766283170629  L -190.96727909145835 -191.61386713046298  L -197.95036952981144 -82.31606252333901 Z" stroke-width="0" fill="rgb(64, 136, 140)" style="animation-play-state:paused" ></path>
<path d="M -197.95036952981144 -82.31606252333901  L -278.5056294403802 -87.07028106543112  L -280.01068779705804 -15.712671380455033 Z" stroke-width="0" fill="rgb(135, 243, 156)" style="animation-play-state:paused" ></path>
<path d="M -24.010687797058054 240.28732861954498  L 58.04963047018856 173.683937476661  L -22.505629440380147 168.92971893456888 Z" stroke-width="0" fill="rgb(135, 243, 156)" style="animation-play-state:paused" ></path>
<path d="M -22.505629440380147 168.92971893456888  L 58.04963047018856 173.683937476661  L 65.03272090854165 64.38613286953702 Z" stroke-width="0" fill="rgb(135, 243, 156)" style="animation-play-state:paused" ></path>
<path d="M -103.90326390381783 243.01962073275823  L -24.010687797058054 240.28732861954498  L -22.505629440380147 168.92971893456888 Z" stroke-width="0" fill="rgb(64, 136, 140)" style="animation-play-state:paused" ></path>
<path d="M -190.96727909145835 -191.61386713046298  L -278.5056294403802 -87.07028106543112  L -197.95036952981144 -82.31606252333901 Z" stroke-width="0" fill="rgb(135, 243, 156)" style="animation-play-state:paused" ></path>
<path d="M -318.6044319025008 74.4032585030881  L -278.5056294403802 168.92971893456888  L -190.96727909145835 64.38613286953702 Z" stroke-width="0" fill="rgb(21, 33, 43)" style="animation-play-state:paused" ></path>
<path d="M -197.95036952981144 173.683937476661  L -222.03758126491667 257.111625348729  L -103.90326390381783 243.01962073275823 Z" stroke-width="0" fill="rgb(135, 243, 156)" style="animation-play-state:paused" ></path>
<path d="M -280.01068779705804 -15.712671380455033  L -318.6044319025008 74.4032585030881  L -222.03758126491667 1.1116253487289691 Z" stroke-width="0" fill="rgb(85, 200, 157)" style="animation-play-state:paused" ></path>
<path d="M -359.90326390381784 -12.980379267241778  L -318.6044319025008 74.4032585030881  L -280.01068779705804 -15.712671380455033 Z" stroke-width="0" fill="rgb(21, 33, 43)" style="animation-play-state:paused" ></path>
<path d="M 65.03272090854165 -191.61386713046298  L -62.60443190250079 -181.5967414969119  L -22.505629440380147 -87.07028106543112 Z" stroke-width="0" fill="rgb(21, 33, 43)" style="animation-play-state:paused" ></path>
<path d="M 118.87541177795846 166.5233716829371  L 137.34217696467724 91.14638620530536  L 65.03272090854165 64.38613286953702 Z" stroke-width="0" fill="rgb(21, 33, 43)" style="animation-play-state:paused" ></path>
<path d="M 152.09673609618216 -12.980379267241778  L 58.04963047018856 -82.31606252333901  L 33.96241873508333 1.1116253487289691 Z" stroke-width="0" fill="rgb(135, 243, 156)" style="animation-play-state:paused" ></path>
<path d="M -280.01068779705804 240.28732861954498  L -222.03758126491667 257.111625348729  L -197.95036952981144 173.683937476661 Z" stroke-width="0" fill="rgb(85, 200, 157)" style="animation-play-state:paused" ></path>
<path d="M -62.60443190250079 330.40325850308807  L 33.96241873508333 257.111625348729  L -24.010687797058054 240.28732861954498 Z" stroke-width="0" fill="rgb(85, 200, 157)" style="animation-play-state:paused" ></path>
<path d="M -103.90326390381783 -268.9803792672418  L -190.96727909145835 -191.61386713046298  L -118.65782303532278 -164.85361379469464 Z" stroke-width="0" fill="rgb(68, 175, 159)" style="animation-play-state:paused" ></path>
<path d="M -118.65782303532278 -164.85361379469464  L -190.96727909145835 -191.61386713046298  L -137.12458822204155 -89.4766283170629 Z" stroke-width="0" fill="rgb(21, 33, 43)" style="animation-play-state:paused" ></path>
<path d="M 152.09673609618216 243.01962073275823  L 118.87541177795846 166.5233716829371  L 58.04963047018856 173.683937476661 Z" stroke-width="0" fill="rgb(40, 77, 88)" style="animation-play-state:paused" ></path>
<path d="M 58.04963047018856 173.683937476661  L 118.87541177795846 166.5233716829371  L 65.03272090854165 64.38613286953702 Z" stroke-width="0" fill="rgb(64, 136, 140)" style="animation-play-state:paused" ></path>
<path d="M -24.010687797058054 240.28732861954498  L 33.96241873508333 257.111625348729  L 58.04963047018856 173.683937476661 Z" stroke-width="0" fill="rgb(85, 200, 157)" style="animation-play-state:paused" ></path>
<path d="M -62.60443190250079 330.40325850308807  L -24.010687797058054 240.28732861954498  L -103.90326390381783 243.01962073275823 Z" stroke-width="0" fill="rgb(21, 33, 43)" style="animation-play-state:paused" ></path>
<path d="M 152.09673609618216 -12.980379267241778  L 33.96241873508333 1.1116253487289691  L 65.03272090854165 64.38613286953702 Z" stroke-width="0" fill="rgb(40, 77, 88)" style="animation-play-state:paused" ></path>
<path d="M 58.04963047018856 -82.31606252333901  L 65.03272090854165 -191.61386713046298  L -22.505629440380147 -87.07028106543112 Z" stroke-width="0" fill="rgb(135, 243, 156)" style="animation-play-state:paused" ></path>
<path d="M 137.34217696467724 91.14638620530536  L 152.09673609618216 -12.980379267241778  L 65.03272090854165 64.38613286953702 Z" stroke-width="0" fill="rgb(68, 175, 159)" style="animation-play-state:paused" ></path>
<path d="M -393.12458822204155 -89.4766283170629  L -359.90326390381784 -12.980379267241778  L -278.5056294403802 -87.07028106543112 Z" stroke-width="0" fill="rgb(85, 200, 157)" style="animation-play-state:paused" ></path>
<path d="M -278.5056294403802 -87.07028106543112  L -359.90326390381784 -12.980379267241778  L -280.01068779705804 -15.712671380455033 Z" stroke-width="0" fill="rgb(64, 136, 140)" style="animation-play-state:paused" ></path>
<path d="M -359.90326390381784 243.01962073275823  L -280.01068779705804 240.28732861954498  L -278.5056294403802 168.92971893456888 Z" stroke-width="0" fill="rgb(64, 136, 140)" style="animation-play-state:paused" ></path>
<path d="M -278.5056294403802 168.92971893456888  L -280.01068779705804 240.28732861954498  L -197.95036952981144 173.683937476661 Z" stroke-width="0" fill="rgb(135, 243, 156)" style="animation-play-state:paused" ></path>
<path d="M -374.6578230353228 91.14638620530536  L -278.5056294403802 168.92971893456888  L -318.6044319025008 74.4032585030881 Z" stroke-width="0" fill="rgb(40, 77, 88)" style="animation-play-state:paused" ></path>
<path d="M -359.90326390381784 -12.980379267241778  L -374.6578230353228 91.14638620530536  L -318.6044319025008 74.4032585030881 Z" stroke-width="0" fill="rgb(85, 200, 157)" style="animation-play-state:paused" ></path>
<path d="M 118.87541177795846 -89.4766283170629  L 65.03272090854165 -191.61386713046298  L 58.04963047018856 -82.31606252333901 Z" stroke-width="0" fill="rgb(64, 136, 140)" style="animation-play-state:paused" ></path>
<path d="M -62.60443190250079 -181.5967414969119  L -103.90326390381783 -268.9803792672418  L -118.65782303532278 -164.85361379469464 Z" stroke-width="0" fill="rgb(85, 200, 157)" style="animation-play-state:paused" ></path>
<path d="M -190.96727909145835 320.38613286953705  L -103.90326390381783 243.01962073275823  L -222.03758126491667 257.111625348729 Z" stroke-width="0" fill="rgb(40, 77, 88)" style="animation-play-state:paused" ></path>
<path d="M -118.65782303532278 347.14638620530536  L -62.60443190250079 330.40325850308807  L -103.90326390381783 243.01962073275823 Z" stroke-width="0" fill="rgb(85, 200, 157)" style="animation-play-state:paused" ></path>
<path d="M -318.6044319025008 330.40325850308807  L -190.96727909145835 320.38613286953705  L -222.03758126491667 257.111625348729 Z" stroke-width="0" fill="rgb(40, 77, 88)" style="animation-play-state:paused" ></path>
<path d="M 233.49437055961985 168.92971893456888  L 193.39556809749922 74.4032585030881  L 137.34217696467724 91.14638620530536 Z" stroke-width="0" fill="rgb(40, 77, 88)" style="animation-play-state:paused" ></path>
<path d="M 137.34217696467724 91.14638620530536  L 193.39556809749922 74.4032585030881  L 152.09673609618216 -12.980379267241778 Z" stroke-width="0" fill="rgb(85, 200, 157)" style="animation-play-state:paused" ></path>
<path d="M 233.49437055961985 -87.07028106543112  L 137.34217696467724 -164.85361379469464  L 118.87541177795846 -89.4766283170629 Z" stroke-width="0" fill="rgb(68, 175, 159)" style="animation-play-state:paused" ></path>
<path d="M -190.96727909145835 320.38613286953705  L -118.65782303532278 347.14638620530536  L -103.90326390381783 243.01962073275823 Z" stroke-width="0" fill="rgb(68, 175, 159)" style="animation-play-state:paused" ></path>
<path d="M -190.96727909145835 -191.61386713046298  L -318.6044319025008 -181.5967414969119  L -278.5056294403802 -87.07028106543112 Z" stroke-width="0" fill="rgb(21, 33, 43)" style="animation-play-state:paused" ></path>
<path d="M -24.010687797058054 -271.71267138045505  L -103.90326390381783 -268.9803792672418  L -62.60443190250079 -181.5967414969119 Z" stroke-width="0" fill="rgb(21, 33, 43)" style="animation-play-state:paused" ></path>
<path d="M -190.96727909145835 -191.61386713046298  L -222.03758126491667 -254.88837465127102  L -318.6044319025008 -181.5967414969119 Z" stroke-width="0" fill="rgb(40, 77, 88)" style="animation-play-state:paused" ></path>
<path d="M -393.12458822204155 -89.4766283170629  L -393.12458822204155 166.5233716829371  L -374.6578230353228 91.14638620530536 Z" stroke-width="0" fill="rgb(40, 77, 88)" style="animation-play-state:paused" ></path>
<path d="M -374.6578230353228 91.14638620530536  L -393.12458822204155 166.5233716829371  L -278.5056294403802 168.92971893456888 Z" stroke-width="0" fill="rgb(68, 175, 159)" style="animation-play-state:paused" ></path>
<path d="M -280.01068779705804 240.28732861954498  L -318.6044319025008 330.40325850308807  L -222.03758126491667 257.111625348729 Z" stroke-width="0" fill="rgb(85, 200, 157)" style="animation-play-state:paused" ></path>
<path d="M 118.87541177795846 -89.4766283170629  L 137.34217696467724 -164.85361379469464  L 65.03272090854165 -191.61386713046298 Z" stroke-width="0" fill="rgb(21, 33, 43)" style="animation-play-state:paused" ></path>
<path d="M 33.96241873508333 -254.88837465127102  L -24.010687797058054 -271.71267138045505  L -62.60443190250079 -181.5967414969119 Z" stroke-width="0" fill="rgb(85, 200, 157)" style="animation-play-state:paused" ></path>
<path d="M 233.49437055961985 -87.07028106543112  L 118.87541177795846 -89.4766283170629  L 152.09673609618216 -12.980379267241778 Z" stroke-width="0" fill="rgb(85, 200, 157)" style="animation-play-state:paused" ></path>
<path d="M -374.6578230353228 -164.85361379469464  L -393.12458822204155 -89.4766283170629  L -278.5056294403802 -87.07028106543112 Z" stroke-width="0" fill="rgb(68, 175, 159)" style="animation-play-state:paused" ></path>
<path d="M -359.90326390381784 -12.980379267241778  L -393.12458822204155 -89.4766283170629  L -374.6578230353228 91.14638620530536 Z" stroke-width="0" fill="rgb(135, 243, 156)" style="animation-play-state:paused" ></path>
<path d="M -103.90326390381783 -268.9803792672418  L -222.03758126491667 -254.88837465127102  L -190.96727909145835 -191.61386713046298 Z" stroke-width="0" fill="rgb(40, 77, 88)" style="animation-play-state:paused" ></path>
<path d="M 33.96241873508333 -254.88837465127102  L -62.60443190250079 -181.5967414969119  L 65.03272090854165 -191.61386713046298 Z" stroke-width="0" fill="rgb(40, 77, 88)" style="animation-play-state:paused" ></path>
<path d="M 152.09673609618216 -268.9803792672418  L 33.96241873508333 -254.88837465127102  L 65.03272090854165 -191.61386713046298 Z" stroke-width="0" fill="rgb(40, 77, 88)" style="animation-play-state:paused" ></path>
<path d="M 33.96241873508333 257.111625348729  L 152.09673609618216 243.01962073275823  L 58.04963047018856 173.683937476661 Z" stroke-width="0" fill="rgb(135, 243, 156)" style="animation-play-state:paused" ></path>
<path d="M 118.87541177795846 166.5233716829371  L 233.49437055961985 168.92971893456888  L 137.34217696467724 91.14638620530536 Z" stroke-width="0" fill="rgb(68, 175, 159)" style="animation-play-state:paused" ></path>
<path d="M 65.03272090854165 320.38613286953705  L 152.09673609618216 243.01962073275823  L 33.96241873508333 257.111625348729 Z" stroke-width="0" fill="rgb(40, 77, 88)" style="animation-play-state:paused" ></path>
<path d="M -62.60443190250079 330.40325850308807  L 65.03272090854165 320.38613286953705  L 33.96241873508333 257.111625348729 Z" stroke-width="0" fill="rgb(40, 77, 88)" style="animation-play-state:paused" ></path>
<path d="M -22.505629440380147 424.9297189345689  L 65.03272090854165 320.38613286953705  L -62.60443190250079 330.40325850308807 Z" stroke-width="0" fill="rgb(21, 33, 43)" style="animation-play-state:paused" ></path>
<path d="M -393.12458822204155 166.5233716829371  L -359.90326390381784 243.01962073275823  L -278.5056294403802 168.92971893456888 Z" stroke-width="0" fill="rgb(85, 200, 157)" style="animation-play-state:paused" ></path>
<path d="M 289.96241873508336 1.1116253487289691  L 231.98931220294196 -15.712671380455033  L 193.39556809749922 74.4032585030881 Z" stroke-width="0" fill="rgb(85, 200, 157)" style="animation-play-state:paused" ></path>
<path d="M 193.39556809749922 74.4032585030881  L 231.98931220294196 -15.712671380455033  L 152.09673609618216 -12.980379267241778 Z" stroke-width="0" fill="rgb(21, 33, 43)" style="animation-play-state:paused" ></path>
<path d="M -318.6044319025008 -181.5967414969119  L -374.6578230353228 -164.85361379469464  L -278.5056294403802 -87.07028106543112 Z" stroke-width="0" fill="rgb(40, 77, 88)" style="animation-play-state:paused" ></path>
<path d="M -359.90326390381784 -268.9803792672418  L -374.6578230353228 -164.85361379469464  L -318.6044319025008 -181.5967414969119 Z" stroke-width="0" fill="rgb(85, 200, 157)" style="animation-play-state:paused" ></path>
<path d="M -103.90326390381783 -268.9803792672418  L -280.01068779705804 -271.71267138045505  L -222.03758126491667 -254.88837465127102 Z" stroke-width="0" fill="rgb(85, 200, 157)" style="animation-play-state:paused" ></path>
<path d="M -222.03758126491667 -254.88837465127102  L -280.01068779705804 -271.71267138045505  L -318.6044319025008 -181.5967414969119 Z" stroke-width="0" fill="rgb(85, 200, 157)" style="animation-play-state:paused" ></path>
<path d="M -24.010687797058054 -271.71267138045505  L -280.01068779705804 -271.71267138045505  L -103.90326390381783 -268.9803792672418 Z" stroke-width="0" fill="rgb(68, 175, 159)" style="animation-play-state:paused" ></path>
<path d="M 231.98931220294196 -15.712671380455033  L 233.49437055961985 -87.07028106543112  L 152.09673609618216 -12.980379267241778 Z" stroke-width="0" fill="rgb(64, 136, 140)" style="animation-play-state:paused" ></path>
<path d="M 137.34217696467724 -164.85361379469464  L 152.09673609618216 -268.9803792672418  L 65.03272090854165 -191.61386713046298 Z" stroke-width="0" fill="rgb(68, 175, 159)" style="animation-play-state:paused" ></path>
<path d="M 152.09673609618216 243.01962073275823  L 233.49437055961985 168.92971893456888  L 118.87541177795846 166.5233716829371 Z" stroke-width="0" fill="rgb(85, 200, 157)" style="animation-play-state:paused" ></path>
<path d="M 231.98931220294196 -15.712671380455033  L 314.04963047018856 -82.31606252333901  L 233.49437055961985 -87.07028106543112 Z" stroke-width="0" fill="rgb(135, 243, 156)" style="animation-play-state:paused" ></path>
<path d="M -359.90326390381784 243.01962073275823  L -318.6044319025008 330.40325850308807  L -280.01068779705804 240.28732861954498 Z" stroke-width="0" fill="rgb(21, 33, 43)" style="animation-play-state:paused" ></path>
<path d="M -190.96727909145835 320.38613286953705  L -137.12458822204155 422.52337168293707  L -118.65782303532278 347.14638620530536 Z" stroke-width="0" fill="rgb(21, 33, 43)" style="animation-play-state:paused" ></path>
<path d="M 233.49437055961985 -87.07028106543112  L 193.39556809749922 -181.5967414969119  L 137.34217696467724 -164.85361379469464 Z" stroke-width="0" fill="rgb(40, 77, 88)" style="animation-play-state:paused" ></path>
<path d="M -197.95036952981144 429.68393747666096  L -137.12458822204155 422.52337168293707  L -190.96727909145835 320.38613286953705 Z" stroke-width="0" fill="rgb(64, 136, 140)" style="animation-play-state:paused" ></path>
<path d="M -118.65782303532278 347.14638620530536  L -22.505629440380147 424.9297189345689  L -62.60443190250079 330.40325850308807 Z" stroke-width="0" fill="rgb(40, 77, 88)" style="animation-play-state:paused" ></path>
<path d="M 65.03272090854165 320.38613286953705  L 137.34217696467724 347.14638620530536  L 152.09673609618216 243.01962073275823 Z" stroke-width="0" fill="rgb(68, 175, 159)" style="animation-play-state:paused" ></path>
<path d="M 152.09673609618216 243.01962073275823  L 231.98931220294196 240.28732861954498  L 233.49437055961985 168.92971893456888 Z" stroke-width="0" fill="rgb(64, 136, 140)" style="animation-play-state:paused" ></path>
<path d="M 118.87541177795846 422.52337168293707  L 137.34217696467724 347.14638620530536  L 65.03272090854165 320.38613286953705 Z" stroke-width="0" fill="rgb(21, 33, 43)" style="animation-play-state:paused" ></path>
<path d="M 193.39556809749922 330.40325850308807  L 231.98931220294196 240.28732861954498  L 152.09673609618216 243.01962073275823 Z" stroke-width="0" fill="rgb(21, 33, 43)" style="animation-play-state:paused" ></path>
<path d="M -137.12458822204155 422.52337168293707  L -22.505629440380147 424.9297189345689  L -118.65782303532278 347.14638620530536 Z" stroke-width="0" fill="rgb(68, 175, 159)" style="animation-play-state:paused" ></path>
<path d="M 321.03272090854165 64.38613286953702  L 193.39556809749922 74.4032585030881  L 233.49437055961985 168.92971893456888 Z" stroke-width="0" fill="rgb(21, 33, 43)" style="animation-play-state:paused" ></path>
<path d="M 321.03272090854165 64.38613286953702  L 289.96241873508336 1.1116253487289691  L 193.39556809749922 74.4032585030881 Z" stroke-width="0" fill="rgb(40, 77, 88)" style="animation-play-state:paused" ></path>
<path d="M 233.49437055961985 -87.07028106543112  L 321.03272090854165 -191.61386713046298  L 193.39556809749922 -181.5967414969119 Z" stroke-width="0" fill="rgb(21, 33, 43)" style="animation-play-state:paused" ></path>
<path d="M -278.5056294403802 424.9297189345689  L -197.95036952981144 429.68393747666096  L -190.96727909145835 320.38613286953705 Z" stroke-width="0" fill="rgb(135, 243, 156)" style="animation-play-state:paused" ></path>
<path d="M -137.12458822204155 422.52337168293707  L -197.95036952981144 429.68393747666096  L -22.505629440380147 424.9297189345689 Z" stroke-width="0" fill="rgb(64, 136, 140)" style="animation-play-state:paused" ></path>
<path d="M 231.98931220294196 -271.71267138045505  L 152.09673609618216 -268.9803792672418  L 193.39556809749922 -181.5967414969119 Z" stroke-width="0" fill="rgb(21, 33, 43)" style="animation-play-state:paused" ></path>
<path d="M 193.39556809749922 -181.5967414969119  L 152.09673609618216 -268.9803792672418  L 137.34217696467724 -164.85361379469464 Z" stroke-width="0" fill="rgb(85, 200, 157)" style="animation-play-state:paused" ></path>
<path d="M 33.96241873508333 -254.88837465127102  L 152.09673609618216 -268.9803792672418  L -24.010687797058054 -271.71267138045505 Z" stroke-width="0" fill="rgb(85, 200, 157)" style="animation-play-state:paused" ></path>
<path d="M -280.01068779705804 -271.71267138045505  L -359.90326390381784 -268.9803792672418  L -318.6044319025008 -181.5967414969119 Z" stroke-width="0" fill="rgb(21, 33, 43)" style="animation-play-state:paused" ></path>
<path d="M -374.6578230353228 -164.85361379469464  L -359.90326390381784 -268.9803792672418  L -393.12458822204155 -89.4766283170629 Z" stroke-width="0" fill="rgb(64, 136, 140)" style="animation-play-state:paused" ></path>
<path d="M -359.90326390381784 243.01962073275823  L -374.6578230353228 347.14638620530536  L -318.6044319025008 330.40325850308807 Z" stroke-width="0" fill="rgb(85, 200, 157)" style="animation-play-state:paused" ></path>
<path d="M -318.6044319025008 330.40325850308807  L -278.5056294403802 424.9297189345689  L -190.96727909145835 320.38613286953705 Z" stroke-width="0" fill="rgb(21, 33, 43)" style="animation-play-state:paused" ></path>
<path d="M -393.12458822204155 166.5233716829371  L -374.6578230353228 347.14638620530536  L -359.90326390381784 243.01962073275823 Z" stroke-width="0" fill="rgb(135, 243, 156)" style="animation-play-state:paused" ></path>
<path d="M 137.34217696467724 347.14638620530536  L 193.39556809749922 330.40325850308807  L 152.09673609618216 243.01962073275823 Z" stroke-width="0" fill="rgb(85, 200, 157)" style="animation-play-state:paused" ></path>
<path d="M 233.49437055961985 424.9297189345689  L 193.39556809749922 330.40325850308807  L 137.34217696467724 347.14638620530536 Z" stroke-width="0" fill="rgb(40, 77, 88)" style="animation-play-state:paused" ></path>
<path d="M -197.95036952981144 429.68393747666096  L 58.04963047018856 429.68393747666096  L -22.505629440380147 424.9297189345689 Z" stroke-width="0" fill="rgb(64, 136, 140)" style="animation-play-state:paused" ></path>
<path d="M -22.505629440380147 424.9297189345689  L 58.04963047018856 429.68393747666096  L 65.03272090854165 320.38613286953705 Z" stroke-width="0" fill="rgb(135, 243, 156)" style="animation-play-state:paused" ></path>
<path d="M -374.6578230353228 347.14638620530536  L -278.5056294403802 424.9297189345689  L -318.6044319025008 330.40325850308807 Z" stroke-width="0" fill="rgb(40, 77, 88)" style="animation-play-state:paused" ></path>
<path d="M 314.04963047018856 173.683937476661  L 321.03272090854165 64.38613286953702  L 233.49437055961985 168.92971893456888 Z" stroke-width="0" fill="rgb(135, 243, 156)" style="animation-play-state:paused" ></path>
<path d="M 314.04963047018856 173.683937476661  L 233.49437055961985 168.92971893456888  L 231.98931220294196 240.28732861954498 Z" stroke-width="0" fill="rgb(135, 243, 156)" style="animation-play-state:paused" ></path>
<path d="M 289.96241873508336 1.1116253487289691  L 314.04963047018856 -82.31606252333901  L 231.98931220294196 -15.712671380455033 Z" stroke-width="0" fill="rgb(85, 200, 157)" style="animation-play-state:paused" ></path>
<path d="M 321.03272090854165 64.38613286953702  L 314.04963047018856 -82.31606252333901  L 289.96241873508336 1.1116253487289691 Z" stroke-width="0" fill="rgb(135, 243, 156)" style="animation-play-state:paused" ></path>
<path d="M 289.96241873508336 257.111625348729  L 314.04963047018856 173.683937476661  L 231.98931220294196 240.28732861954498 Z" stroke-width="0" fill="rgb(85, 200, 157)" style="animation-play-state:paused" ></path>
<path d="M 58.04963047018856 429.68393747666096  L 118.87541177795846 422.52337168293707  L 65.03272090854165 320.38613286953705 Z" stroke-width="0" fill="rgb(64, 136, 140)" style="animation-play-state:paused" ></path>
<path d="M 321.03272090854165 320.38613286953705  L 289.96241873508336 257.111625348729  L 193.39556809749922 330.40325850308807 Z" stroke-width="0" fill="rgb(40, 77, 88)" style="animation-play-state:paused" ></path>
<path d="M 193.39556809749922 330.40325850308807  L 289.96241873508336 257.111625348729  L 231.98931220294196 240.28732861954498 Z" stroke-width="0" fill="rgb(85, 200, 157)" style="animation-play-state:paused" ></path>
<path d="M 289.96241873508336 -254.88837465127102  L 231.98931220294196 -271.71267138045505  L 193.39556809749922 -181.5967414969119 Z" stroke-width="0" fill="rgb(85, 200, 157)" style="animation-play-state:paused" ></path>
<path d="M 152.09673609618216 -268.9803792672418  L 231.98931220294196 -271.71267138045505  L -24.010687797058054 -271.71267138045505 Z" stroke-width="0" fill="rgb(68, 175, 159)" style="animation-play-state:paused" ></path>
<path d="M -393.12458822204155 166.5233716829371  L -393.12458822204155 422.52337168293707  L -374.6578230353228 347.14638620530536 Z" stroke-width="0" fill="rgb(40, 77, 88)" style="animation-play-state:paused" ></path>
<path d="M -374.6578230353228 347.14638620530536  L -393.12458822204155 422.52337168293707  L -278.5056294403802 424.9297189345689 Z" stroke-width="0" fill="rgb(68, 175, 159)" style="animation-play-state:paused" ></path>
<path d="M -278.5056294403802 424.9297189345689  L -393.12458822204155 422.52337168293707  L -197.95036952981144 429.68393747666096 Z" stroke-width="0" fill="rgb(40, 77, 88)" style="animation-play-state:paused" ></path>
<path d="M 321.03272090854165 64.38613286953702  L 321.03272090854165 -191.61386713046298  L 314.04963047018856 -82.31606252333901 Z" stroke-width="0" fill="rgb(40, 77, 88)" style="animation-play-state:paused" ></path>
<path d="M 314.04963047018856 -82.31606252333901  L 321.03272090854165 -191.61386713046298  L 233.49437055961985 -87.07028106543112 Z" stroke-width="0" fill="rgb(135, 243, 156)" style="animation-play-state:paused" ></path>
<path d="M 321.03272090854165 -191.61386713046298  L 289.96241873508336 -254.88837465127102  L 193.39556809749922 -181.5967414969119 Z" stroke-width="0" fill="rgb(40, 77, 88)" style="animation-play-state:paused" ></path>
<path d="M 233.49437055961985 424.9297189345689  L 321.03272090854165 320.38613286953705  L 193.39556809749922 330.40325850308807 Z" stroke-width="0" fill="rgb(21, 33, 43)" style="animation-play-state:paused" ></path>
<path d="M 289.96241873508336 257.111625348729  L 321.03272090854165 320.38613286953705  L 314.04963047018856 173.683937476661 Z" stroke-width="0" fill="rgb(135, 243, 156)" style="animation-play-state:paused" ></path>
<path d="M 314.04963047018856 173.683937476661  L 321.03272090854165 320.38613286953705  L 321.03272090854165 64.38613286953702 Z" stroke-width="0" fill="rgb(40, 77, 88)" style="animation-play-state:paused" ></path>
<path d="M 58.04963047018856 429.68393747666096  L 233.49437055961985 424.9297189345689  L 118.87541177795846 422.52337168293707 Z" stroke-width="0" fill="rgb(64, 136, 140)" style="animation-play-state:paused" ></path>
<path d="M 118.87541177795846 422.52337168293707  L 233.49437055961985 424.9297189345689  L 137.34217696467724 347.14638620530536 Z" stroke-width="0" fill="rgb(68, 175, 159)" style="animation-play-state:paused" ></path>
<path d="M 58.04963047018856 429.68393747666096  L 314.04963047018856 429.68393747666096  L 233.49437055961985 424.9297189345689 Z" stroke-width="0" fill="rgb(64, 136, 140)" style="animation-play-state:paused" ></path>
<path d="M 233.49437055961985 424.9297189345689  L 314.04963047018856 429.68393747666096  L 321.03272090854165 320.38613286953705 Z" stroke-width="0" fill="rgb(135, 243, 156)" style="animation-play-state:paused" ></path></g></defs>


<g style="animation-play-state:paused" ><use xlink:href="#trianglify-0.48344793769819483" x="0" y="0" style="animation-play-state:paused" ></use></g></g></svg>